<svg width="100" height="100" viewBox="0 0 100 100" fill="none" xmlns="http://www.w3.org/2000/svg">
    <path
        d="M30 10C29.1159 10 28.2681 10.3512 27.6429 10.9763C27.0178 11.6014 26.6666 12.4493 26.6666 13.3333V70C26.6666 70.8841 27.0178 71.7319 27.6429 72.357C28.2681 72.9821 29.1159 73.3333 30 73.3333C30.5152 73.3323 31.0233 73.2119 31.4842 72.9814C31.9451 72.751 32.3462 72.4168 32.6562 72.0052L43.0664 60.3971L54.6093 87.0573C55.6727 89.5173 58.5561 90.6282 60.9961 89.5182C63.4027 88.4249 64.4689 85.5936 63.3789 83.1836L51.4648 56.7969L70 56.6667C70.884 56.6667 71.7319 56.3155 72.357 55.6904C72.9821 55.0652 73.3333 54.2174 73.3333 53.3333C73.3332 52.8365 73.2221 52.3461 73.0081 51.8977C72.7941 51.4494 72.4826 51.0546 72.0963 50.7422L32.6106 11.263C32.2987 10.8694 31.9019 10.5514 31.4499 10.3327C30.9978 10.114 30.5021 10.0003 30 10Z"
        fill="black" />
</svg>