<svg width="25" height="29" viewBox="0 0 25 29" fill="none" xmlns="http://www.w3.org/2000/svg">
	<path id="Instagram"
		d="M12.7554 7.97051C9.2773 7.97051 6.47183 10.776 6.47183 14.2541C6.47183 17.7322 9.2773 20.5377 12.7554 20.5377C16.2335 20.5377 19.039 17.7322 19.039 14.2541C19.039 10.776 16.2335 7.97051 12.7554 7.97051ZM12.7554 18.3393C10.5078 18.3393 8.67026 16.5072 8.67026 14.2541C8.67026 12.001 10.5023 10.1689 12.7554 10.1689C15.0085 10.1689 16.8406 12.001 16.8406 14.2541C16.8406 16.5072 15.0031 18.3393 12.7554 18.3393ZM20.7617 7.71348C20.7617 8.52832 20.1054 9.1791 19.296 9.1791C18.4812 9.1791 17.8304 8.52285 17.8304 7.71348C17.8304 6.9041 18.4867 6.24785 19.296 6.24785C20.1054 6.24785 20.7617 6.9041 20.7617 7.71348ZM24.9234 9.20098C24.8304 7.2377 24.382 5.49863 22.9437 4.06582C21.5109 2.63301 19.7718 2.18457 17.8085 2.08613C15.7851 1.97129 9.72026 1.97129 7.69683 2.08613C5.73901 2.1791 3.99995 2.62754 2.56167 4.06035C1.12339 5.49316 0.68042 7.23223 0.581982 9.19551C0.467139 11.2189 0.467139 17.2838 0.581982 19.3072C0.674951 21.2705 1.12339 23.0096 2.56167 24.4424C3.99995 25.8752 5.73354 26.3236 7.69683 26.4221C9.72026 26.5369 15.7851 26.5369 17.8085 26.4221C19.7718 26.3291 21.5109 25.8807 22.9437 24.4424C24.3765 23.0096 24.825 21.2705 24.9234 19.3072C25.0382 17.2838 25.0382 11.2244 24.9234 9.20098ZM22.3093 21.4783C21.8828 22.5502 21.057 23.376 19.9796 23.808C18.3664 24.4479 14.5382 24.3002 12.7554 24.3002C10.9726 24.3002 7.13901 24.4424 5.5312 23.808C4.45933 23.3814 3.63355 22.5557 3.20151 21.4783C2.56167 19.865 2.70933 16.0369 2.70933 14.2541C2.70933 12.4713 2.56714 8.6377 3.20151 7.02988C3.62808 5.95801 4.45386 5.13223 5.5312 4.7002C7.14448 4.06035 10.9726 4.20801 12.7554 4.20801C14.5382 4.20801 18.3718 4.06582 19.9796 4.7002C21.0515 5.12676 21.8773 5.95254 22.3093 7.02988C22.9492 8.64316 22.8015 12.4713 22.8015 14.2541C22.8015 16.0369 22.9492 19.8705 22.3093 21.4783Z"
		fill="#000000" />
</svg>