<svg width="29" height="29" viewBox="0 0 29 29" fill="none" xmlns="http://www.w3.org/2000/svg">
	<path id="Facebook" d="M28.5 14.2598C28.5 6.52695 22.2328 0.259766 14.5 0.259766C6.76719 0.259766 0.5 6.52695 0.5 14.2598C0.5 20.8223 5.02266 26.3348 11.1203 27.8496V18.5363H8.23281V14.2598H11.1203V12.4168C11.1203 7.65352 13.275 5.44414 17.9563 5.44414C18.8422 5.44414 20.3734 5.61914 21.0023 5.79414V9.66602C20.6742 9.6332 20.1 9.61133 19.3836 9.61133C17.0867 9.61133 16.2008 10.4809 16.2008 12.7395V14.2598H20.7727L19.9852 18.5363H16.1953V28.1559C23.1297 27.3191 28.5 21.4184 28.5 14.2598Z" fill="#474747"/>
</svg>