<svg width="25" height="29" viewBox="0 0 25 29"  xmlns="http://www.w3.org/2000/svg">
	<path className="fill-beige" id="LinkedIn" d="M22.75 2.00977H1.74453C0.782031 2.00977 0 2.80273 0 3.77617V24.7434C0 25.7168 0.782031 26.5098 1.74453 26.5098H22.75C23.7125 26.5098 24.5 25.7168 24.5 24.7434V3.77617C24.5 2.80273 23.7125 2.00977 22.75 2.00977ZM7.40469 23.0098H3.77344V11.3176H7.41016V23.0098H7.40469ZM5.58906 9.7207C4.42422 9.7207 3.48359 8.77461 3.48359 7.61523C3.48359 6.45586 4.42422 5.50977 5.58906 5.50977C6.74844 5.50977 7.69453 6.45586 7.69453 7.61523C7.69453 8.78008 6.75391 9.7207 5.58906 9.7207ZM21.0164 23.0098H17.3852V17.3223C17.3852 15.966 17.3578 14.2215 15.4984 14.2215C13.6062 14.2215 13.3164 15.698 13.3164 17.2238V23.0098H9.68516V11.3176H13.1687V12.9145H13.218C13.7047 11.9957 14.8914 11.0277 16.6578 11.0277C20.3328 11.0277 21.0164 13.4504 21.0164 16.6004V23.0098Z" fill="#FBF7EC"/>
</svg>