<svg xmlns="http://www.w3.org/2000/svg"  width="100" height="110" viewBox="0 0 100 110" fill="none">
    <path fill-rule="evenodd" clip-rule="evenodd"
        d="M47.1434 1.05731C48.9116 0.0651245 51.0887 0.0651245 52.8544 1.05731C61.5912 5.9609 87.883 20.7214 96.6225 25.625C98.3907 26.6147 99.4794 28.4479 99.4794 30.4323C99.4794 40.2397 99.4794 69.7578 99.4794 79.5651C99.4794 81.5495 98.3907 83.3828 96.6225 84.375C87.8856 89.2786 61.5939 104.039 52.8544 108.943C51.0861 109.935 48.909 109.935 47.1434 108.943C38.4064 104.039 12.1147 89.2786 3.37512 84.375C1.6095 83.3828 0.520996 81.5521 0.520996 79.5678C0.520996 69.7604 0.520996 40.2422 0.520996 30.4349C0.520996 28.4505 1.6095 26.6172 3.37775 25.625C12.1121 20.7214 38.409 5.9609 47.1434 1.05731Z"
        fill="#85899E" />
    <path fill-rule="evenodd" clip-rule="evenodd"
        d="M1.31262 82.0937C0.619996 81.1666 0.520996 80.2865 0.520996 79.1016C0.520996 69.3516 0.520996 40.0026 0.520996 30.25C0.520996 28.276 1.60687 26.4531 3.37 25.4687C12.0756 20.5937 38.2787 5.91924 46.9845 1.04167C48.7475 0.0546924 51.1356 0.075517 52.8986 1.0625C61.6044 5.93749 87.7189 20.487 96.4246 25.362C97.1277 25.7579 97.6642 26.2344 98.1434 26.862L1.31262 82.0937Z"
        fill="#9EA5C9" />
    <path fill-rule="evenodd" clip-rule="evenodd"
        d="M49.9999 18.5416C70.1223 18.5416 86.4581 34.8776 86.4581 55C86.4581 75.1224 70.1223 91.4584 49.9999 91.4584C29.8775 91.4584 13.5415 75.1224 13.5415 55C13.5415 34.8776 29.8775 18.5416 49.9999 18.5416ZM49.9999 36.7709C60.0598 36.7709 68.229 44.9375 68.229 55C68.229 65.0599 60.0598 73.2291 49.9999 73.2291C39.94 73.2291 31.7706 65.0599 31.7706 55C31.7706 44.9375 39.9374 36.7709 49.9999 36.7709Z"
        fill="#FBF7EC" />
    <path fill-rule="evenodd" clip-rule="evenodd"
        d="M98.1378 26.888C99.4816 28.1459 99.4556 30.0416 99.4556 31.5339C99.4556 41.4166 99.3722 69.526 99.4789 79.4089C99.4894 80.4401 99.1483 81.526 98.6378 82.3438L48.9399 55L98.1378 26.888Z"
        fill="#999DB5" />
</svg>