<svg width="100" height="100" viewBox="0 0 100 100" fill="none" xmlns="http://www.w3.org/2000/svg">
    <g clip-path="url(#clip0_75_380)">
        <path
            d="M93.657 0H6.35231C2.84599 0 0 2.84599 0 6.35231V93.6478C0 97.154 2.84599 100 6.35231 100H93.6478C97.154 100 100 97.154 100 93.657V6.35231C100 2.84599 97.154 0 93.657 0ZM54.7619 76.6276C54.7619 86.1421 49.1815 90.4761 41.0342 90.4761C33.6682 90.4761 28.3575 85.5376 26.1904 80.9524L33.6775 76.423C35.1191 78.9806 37.314 80.9524 40.4761 80.9524C43.499 80.9524 45.2381 79.7712 45.2381 75.1767V45.2381H54.7619V76.6276ZM75.4185 90.4761C66.9828 90.4761 62.1931 86.2258 59.5239 80.9524L66.6667 76.1904C68.6104 79.3713 70.731 82.4125 75.2139 82.4125C78.9806 82.4125 80.9524 80.5339 80.9524 77.9297C80.9524 74.8233 78.9063 73.7166 74.7675 71.9028L72.4982 70.9263C65.9412 68.1361 61.5792 64.6391 61.5792 57.2358C61.5792 50.4278 66.7782 45.2381 74.8884 45.2381C80.664 45.2381 84.8121 47.247 87.8069 52.5112L80.7385 57.0591C79.176 54.2597 77.5018 53.1622 74.8884 53.1622C72.2284 53.1622 70.5451 54.8549 70.5451 57.0591C70.5451 59.7842 72.2284 60.8816 76.1254 62.5745L78.3948 63.5509C86.1236 66.8527 90.4761 70.2288 90.4761 77.8181C90.4761 85.9933 84.0495 90.4761 75.4185 90.4761Z"
            fill="#85899E" />
    </g>
    <defs>
        <clipPath id="clip0_75_380">
            <rect width="100" height="100" fill="white" />
        </clipPath>
    </defs>
</svg>