<svg width="80" height="100" viewBox="0 0 80 100" fill="none" xmlns="http://www.w3.org/2000/svg">
    <path
        d="M45.9159 0.495056C51.3615 13.0957 26.3924 20.8771 24.0719 31.3738C21.9448 41.0195 38.9079 52.2277 38.9234 52.2277C36.3475 48.2364 34.4525 44.9489 31.8689 38.7376C27.4985 28.2333 58.4856 18.7268 45.9159 0.495056ZM62.5001 17.9456C62.5001 17.9456 40.5942 19.3534 39.4803 33.354C38.9853 39.5885 45.243 42.8682 45.4209 47.401C45.5678 51.1062 41.708 54.2079 41.708 54.2079C41.708 54.2079 48.7316 52.8697 50.9283 47.2154C53.3649 40.9422 46.1789 36.7033 46.906 31.6832C47.6022 26.8796 62.5001 17.9456 62.5001 17.9456ZM28.0942 50.3094C28.0942 50.3094 8.04466 50.0232 8.04466 55.6931C8.04466 61.6182 34.29 62.0591 53.0323 58.4159C53.0323 58.4159 58.0138 54.9892 59.3442 53.7129C47.0607 56.219 19.0595 56.4975 19.0595 54.3317C19.0595 52.3361 28.0942 50.3094 28.0942 50.3094ZM66.6461 50.3094C64.6814 50.4642 62.562 51.2222 60.6437 52.599C65.161 51.6244 68.9976 54.4246 68.9976 57.6114C68.9976 64.7896 58.6016 71.5347 58.6016 71.5347C58.6016 71.5347 74.6907 69.7091 74.6907 57.9208C74.6907 52.5681 70.9701 49.9691 66.6461 50.3094ZM23.2674 61.3243C20.1888 61.3243 15.5942 63.7376 15.5942 66.0272C15.5942 70.6296 38.7377 74.1724 55.8788 67.4505L49.9382 63.7995C38.32 67.5201 16.9247 66.3058 23.2674 61.3243ZM26.114 71.6584C21.8983 71.6584 19.1214 74.2033 19.1214 76.1139C19.1214 82.0236 44.2993 82.6191 54.2699 76.6089L47.958 72.5866C40.5091 75.7349 21.8132 76.2145 26.114 71.6584ZM12.0669 76.9802C5.19812 76.841 0.742676 79.9273 0.742676 82.4876C0.742676 96.1015 71.0397 95.475 71.0397 81.5594C71.0397 79.2466 68.3711 78.125 67.3887 77.599C73.1359 90.9035 9.83921 89.8438 9.83921 81.9926C9.83921 80.2058 14.4957 78.4963 18.812 79.3317L15.161 77.2277C14.0858 77.0653 13.0493 77.0034 12.0669 76.9802ZM78.4655 86.1386C67.7755 96.2717 40.687 99.9456 13.4283 93.6881C40.6792 104.843 78.334 98.5845 78.4655 86.1386Z"
        fill="#85899E" />
</svg>