<svg width="46" height="100" viewBox="0 0 46 100" fill="none" xmlns="http://www.w3.org/2000/svg">
    <g clip-path="url(#clip0_75_382)">
        <path
            d="M44.5813 39.6657C39.3251 16.4875 26.9063 8.88755 25.572 5.97505C24.1063 3.90942 22.5282 0.00317383 22.5282 0.00317383C22.5126 0.0844238 22.5126 0.134424 22.497 0.215674V0.265674C22.497 0.331299 22.4813 0.362549 22.4813 0.428174V0.493799H22.4657V0.590674V0.703174H22.4501C22.4501 0.734424 22.4501 0.784424 22.4345 0.800049V0.896924C22.4345 0.928174 22.4345 0.962549 22.4188 0.978174V1.05942C22.4188 1.10942 22.4188 1.1563 22.4032 1.19067V1.2063C22.4032 1.27192 22.3876 1.35317 22.372 1.4188V1.45005C22.3563 1.46567 22.3563 1.4813 22.3563 1.50005V1.56567H22.3407V1.66255H22.3251V1.72817H22.2938V1.82505H22.2782V1.9063H22.2626V1.97192H22.247V2.03755H22.2313V2.10317H22.2157V2.1688H22.2001V2.2188H22.1845V2.28442H22.1688V2.30005V2.35005H22.1532C22.1376 2.35005 22.1376 2.36567 22.1376 2.36567V2.39692L22.122 2.42817C22.122 2.45942 22.1063 2.4938 22.0907 2.52505C22.0751 2.54067 22.0751 2.54067 22.0751 2.5563V2.58755H22.0595V2.6188H22.0282V2.70005H21.997V2.75005H21.9813V2.76567H21.9657V2.79692H21.9501V2.84692H21.9345V2.87817H21.9032V2.92817H21.8876V2.95942H21.872V2.99067H21.8563V3.04067H21.8407V3.07192H21.8251V3.08755H21.8095V3.1188H21.7782V3.1688H21.7626V3.18442H21.747V3.21567H21.7313V3.26567H21.7157V3.2813H21.7001V3.31255H21.6845V3.32817H21.6688V3.37817H21.6376V3.3938H21.622V3.42505H21.6063V3.44067H21.5907V3.47192H21.5751V3.48755V3.50317C21.5595 3.50317 21.5595 3.5188 21.5595 3.5188V3.53442H21.5438C21.5282 3.56567 21.5126 3.58442 21.4938 3.61567C21.4938 3.61567 21.4626 3.64692 21.4626 3.66567C21.447 3.66567 21.447 3.6813 21.447 3.6813V3.69692H21.4313V3.71255H21.4157V3.72817V3.7438H21.3845V3.75942H21.3688V3.77505H21.3532V3.79067V3.82192H21.3376V3.83755H21.322V3.85317H21.3063V3.88442H21.2907V3.85317H21.2595V3.8688H21.2438V3.90005H21.2282V3.9313H21.2126V3.94692H21.197V3.96255H21.1813V3.97817H21.1657V4.00942H21.1345V4.02505H21.1188V4.0563H21.1032V4.07192H21.0876V4.08755H21.072V4.13755H21.0563V4.15317H21.0407V4.1688H21.0251V4.18442H21.0095V4.20005H20.9782V4.2313H20.9626V4.24692H20.947V4.26255H20.9313V4.2938H20.9157V4.30942H20.8845V4.32505H20.8688V4.34067H20.8532V4.37192H20.8376V4.40317H20.822V4.4188H20.8063V4.43442H20.7751V4.45005H20.7595V4.46567H20.7438V4.49692H20.7282V4.51255H20.7126V4.5438H20.697V4.55942H20.6813V4.57505H20.6657V4.59067H20.6501V4.6063H20.6188V4.62192C20.6032 4.62192 20.6032 4.63755 20.6032 4.63755L20.5876 4.65317L20.572 4.6688V4.70005H20.5563V4.71567H20.5407V4.7313H20.5251V4.74692H20.5095L20.4782 4.77817V4.7938C20.447 4.80942 20.447 4.82505 20.4126 4.85942C20.4126 4.85942 20.3813 4.89067 20.3626 4.89067C20.3126 4.92192 20.2501 4.98755 20.2001 5.03755C20.1688 5.05317 20.1345 5.08755 20.1032 5.10317C20.0376 5.1688 19.972 5.21567 19.9063 5.26567C19.8095 5.36255 19.7095 5.42817 19.597 5.52505H19.5813C19.3532 5.72192 19.0938 5.94692 18.8157 6.1938H18.8001C18.1001 6.81255 17.2688 7.60942 16.3251 8.55317L16.2438 8.63442C10.5782 14.4938 1.64383 26.7157 0.715706 46.4594C0.618831 48.0875 0.634453 49.6813 0.731328 51.2282V51.2594C1.18758 59.0407 3.6282 65.6813 6.68758 71.0844C7.8907 73.2344 9.20945 75.1875 10.5438 76.9438C15.1345 83 19.822 86.5969 21.0095 87.4751C22.8501 91.7219 22.6845 99.0469 22.6845 99.0469L25.3688 99.9407C25.3688 99.9407 24.8157 92.8594 25.5813 89.425C25.8251 88.3657 26.3782 87.4563 27.0313 86.6751C27.4876 86.3657 28.7907 85.4219 30.3532 83.9907C30.4345 83.9094 30.4845 83.8438 30.5501 83.7626C36.8813 77.8532 48.7157 63.3032 44.6626 39.6063L44.5813 39.6657Z"
            fill="#85899E" />
    </g>
    <defs>
        <clipPath id="clip0_75_382">
            <rect width="46" height="100" fill="white" />
        </clipPath>
    </defs>
</svg>