<svg width="100" height="100" viewBox="0 0 45 100" fill="none" xmlns="http://www.w3.org/2000/svg">
    <path
        d="M43.9309 39.6625C38.6747 16.4844 26.2559 8.88437 24.9216 5.97187C23.4559 3.90625 21.8778 0 21.8778 0C21.8622 0.08125 21.8622 0.13125 21.8466 0.2125V0.2625C21.8466 0.328125 21.8309 0.359375 21.8309 0.425V0.490625H21.8153V0.5875V0.7H21.7997C21.7997 0.73125 21.7997 0.78125 21.7841 0.796875V0.89375C21.7841 0.925 21.7841 0.959375 21.7684 0.975V1.05625C21.7684 1.10625 21.7684 1.15313 21.7528 1.1875V1.20313C21.7528 1.26875 21.7372 1.35 21.7216 1.41562V1.44687C21.7059 1.4625 21.7059 1.47812 21.7059 1.49688V1.5625H21.6903V1.65938H21.6747V1.725H21.6434V1.82187H21.6278V1.90313H21.6122V1.96875H21.5966V2.03438H21.5809V2.1H21.5653V2.16563H21.5497V2.21563H21.5341V2.28125H21.5184V2.29688V2.34687H21.5028C21.4872 2.34687 21.4872 2.3625 21.4872 2.3625V2.39375L21.4716 2.425C21.4716 2.45625 21.4559 2.49063 21.4403 2.52188C21.4247 2.5375 21.4247 2.5375 21.4247 2.55313V2.58438H21.4091V2.61563H21.3778V2.69688H21.3466V2.74688H21.3309V2.7625H21.3153V2.79375H21.2997V2.84375H21.2841V2.875H21.2528V2.925H21.2372V2.95625H21.2216V2.9875H21.2059V3.0375H21.1903V3.06875H21.1747V3.08437H21.1591V3.11563H21.1278V3.16563H21.1122V3.18125H21.0966V3.2125H21.0809V3.2625H21.0653V3.27812H21.0497V3.30937H21.0341V3.325H21.0184V3.375H20.9872V3.39062H20.9716V3.42187H20.9559V3.4375H20.9403V3.46875H20.9247V3.48438V3.5C20.9091 3.5 20.9091 3.51562 20.9091 3.51562V3.53125H20.8934C20.8778 3.5625 20.8622 3.58125 20.8434 3.6125C20.8434 3.6125 20.8122 3.64375 20.8122 3.6625C20.7966 3.6625 20.7966 3.67812 20.7966 3.67812V3.69375H20.7809V3.70937H20.7653V3.725V3.74062H20.7341V3.75625H20.7184V3.77187H20.7028V3.7875V3.81875H20.6872V3.83437H20.6716V3.85H20.6559V3.88125H20.6403V3.85H20.6091V3.86562H20.5934V3.89687H20.5778V3.92812H20.5622V3.94375H20.5466V3.95937H20.5309V3.975H20.5153V4.00625H20.4841V4.02187H20.4684V4.05312H20.4528V4.06875H20.4372V4.08437H20.4216V4.13437H20.4059V4.15H20.3903V4.16562H20.3747V4.18125H20.3591V4.19687H20.3278V4.22812H20.3122V4.24375H20.2966V4.25937H20.2809V4.29062H20.2653V4.30625H20.2341V4.32187H20.2184V4.3375H20.2028V4.36875H20.1872V4.4H20.1716V4.41563H20.1559V4.43125H20.1247V4.44688H20.1091V4.4625H20.0934V4.49375H20.0778V4.50938H20.0622V4.54062H20.0466V4.55625H20.0309V4.57187H20.0153V4.5875H19.9997V4.60312H19.9684V4.61875C19.9528 4.61875 19.9528 4.63437 19.9528 4.63437L19.9372 4.65L19.9216 4.66562V4.69687H19.9059V4.7125H19.8903V4.72813H19.8747V4.74375H19.8591L19.8278 4.775V4.79063C19.7966 4.80625 19.7966 4.82187 19.7622 4.85625C19.7622 4.85625 19.7309 4.8875 19.7122 4.8875C19.6622 4.91875 19.5997 4.98438 19.5497 5.03437C19.5184 5.05 19.4841 5.08437 19.4528 5.1C19.3872 5.16563 19.3216 5.2125 19.2559 5.2625C19.1591 5.35937 19.0591 5.425 18.9466 5.52187H18.9309C18.7028 5.71875 18.4434 5.94375 18.1653 6.19062H18.1497C17.4497 6.80937 16.6184 7.60625 15.6747 8.55L15.5934 8.63125C9.92781 14.4906 0.99344 26.7125 0.0653154 46.4562C-0.0315596 48.0844 -0.0159372 49.6781 0.0809378 51.225V51.2563C0.537188 59.0375 2.97781 65.6781 6.03719 71.0813C7.24031 73.2313 8.55906 75.1844 9.89344 76.9406C14.4841 82.9969 19.1716 86.5938 20.3591 87.4719C22.1997 91.7188 22.0341 99.0437 22.0341 99.0437L24.7184 99.9375C24.7184 99.9375 24.1653 92.8562 24.9309 89.4219C25.1747 88.3625 25.7278 87.4531 26.3809 86.6719C26.8372 86.3625 28.1403 85.4188 29.7028 83.9875C29.7841 83.9063 29.8341 83.8406 29.8997 83.7594C36.2309 77.85 48.0653 63.3 44.0122 39.6031L43.9309 39.6625Z"
        fill="#85899E" />
</svg>