<svg width="90" height="100" viewBox="0 0 90 100" fill="none" xmlns="http://www.w3.org/2000/svg">
    <g clip-path="url(#clip0_75_399)">
        <mask id="mask0_75_399" style="mask-type:luminance" maskUnits="userSpaceOnUse" x="0" y="0"
            width="90" height="100">
            <path d="M89.4737 0H0V100H89.4737V0Z" fill="white" />
        </mask>
        <g mask="url(#mask0_75_399)">
            <path
                d="M88.0061 75.7953L51.2161 3.6687C50.7589 2.78122 50.0503 2.02436 49.1653 1.47818C48.2804 0.931998 47.252 0.616827 46.1889 0.566018C45.1238 0.500125 44.0595 0.705092 43.1119 1.15862C42.1642 1.61216 41.3692 2.29691 40.8136 3.13838L0.911202 62.8021C0.304466 63.703 -0.0115088 64.7449 0.00032037 65.8056C0.0121496 66.8663 0.351293 67.902 0.97799 68.7912L20.4865 96.6812C21.2245 97.7281 22.3094 98.5268 23.5793 98.9579C24.8493 99.3891 26.2362 99.4297 27.5331 99.0737L84.1472 83.6139C84.9997 83.3838 85.7887 82.9875 86.4609 82.4517C87.1332 81.9158 87.673 81.2531 88.0438 80.508C88.4094 79.767 88.5957 78.9612 88.5897 78.1468C88.5836 77.3324 88.3854 76.5291 88.0089 75.7926L88.0061 75.7953ZM79.7693 78.8886L31.729 92.0029C30.2635 92.4054 28.8568 91.2326 29.1616 89.8672L46.3253 13.9984C46.6461 12.579 48.7694 12.3541 49.4408 13.6678L81.2134 75.9556C81.3538 76.2332 81.4274 76.5355 81.4291 76.8418C81.4307 77.1481 81.3604 77.4512 81.2228 77.7299C81.0853 78.0088 80.884 78.2566 80.6326 78.4566C80.3812 78.6566 80.0859 78.8039 79.7669 78.8883L79.7693 78.8886Z"
                fill="#85899E" />
        </g>
    </g>
    <defs>
        <clipPath id="clip0_75_399">
            <rect width="89.4737" height="100" fill="white" />
        </clipPath>
    </defs>
</svg>