<svg width="100" height="100" viewBox="0 0 100 100" fill="none" xmlns="http://www.w3.org/2000/svg">
    <g clip-path="url(#clip0_75_405)">
        <path
            d="M51.3726 0.520881C47.3231 0.533881 44.5158 0.890631 41.1226 1.47651C31.1017 3.22138 29.2762 6.88538 29.2762 13.638V23.9584H52.7137V29.1666H28.3856H17.0574C10.1929 29.1666 4.18507 32.401 2.28145 40.1536C0.13041 49.0521 0.0340478 54.625 2.28145 63.9166C3.9872 70.8464 7.74495 76.0416 14.6122 76.0416H24.0704V62.75C24.0704 55.026 31.0653 47.3959 39.0809 47.3959H57.9247C64.4949 47.3959 70.9455 42.5469 70.9455 35.9974V13.638C70.9455 7.28651 66.3648 2.53651 59.9611 1.47138C60.1199 1.45576 55.3882 0.505256 51.3726 0.520881ZM38.3934 10.9375C40.5314 10.9375 42.2997 12.7005 42.2997 14.849C42.2997 17.0183 40.5314 18.75 38.3934 18.75C36.2137 18.75 34.4872 17.0209 34.4872 14.849C34.4872 12.7084 36.2137 10.9375 38.3934 10.9375Z"
            fill="#85899E" />
        <path
            d="M48.8489 99.4792C52.8984 99.4661 55.7056 99.1094 59.0989 98.5235C69.1196 96.7786 70.9453 93.1146 70.9453 86.362V76.0417H47.5078V70.8334H71.8384H83.1665C90.0311 70.8334 96.039 67.599 97.9426 59.8464C100.094 50.948 100.19 45.375 97.9426 36.0834C96.2343 29.1536 92.4765 23.9584 85.6093 23.9584H76.1509V37.25C76.1509 44.974 69.1561 52.6042 61.1405 52.6042H42.2968C35.7265 52.6042 29.2759 57.4531 29.2759 64.0026V86.362C29.2759 92.7136 33.8566 97.4635 40.2603 98.5286C40.1015 98.5442 44.8333 99.4949 48.8489 99.4792ZM61.8306 89.0625C59.6926 89.0625 57.9244 87.2995 57.9244 85.1511C57.9244 82.9817 59.6926 81.25 61.8306 81.25C64.0103 81.25 65.7369 82.9793 65.7369 85.1511C65.7369 87.2917 64.0078 89.0625 61.8306 89.0625Z"
            fill="#85899E" />
    </g>
    <defs>
        <clipPath id="clip0_75_405">
            <rect width="100" height="100" fill="white" />
        </clipPath>
    </defs>
</svg>