<svg width="100" height="91" viewBox="0 0 100 91" fill="none" xmlns="http://www.w3.org/2000/svg">
    <g clip-path="url(#clip0_75_408)">
        <path
            d="M31.9988 0.5C29.4529 0.5 27.0916 1.06992 25 2.27409C18.463 6.04821 15.9749 15.2454 17.2933 26.6963C6.71959 31.28 0 38.0293 0 45.5765C0 53.1238 6.71959 59.873 17.2933 64.4566C15.9755 75.9071 18.463 85.1048 25 88.8789C27.0875 90.083 29.4488 90.653 31.9988 90.653C37.4263 90.653 43.6994 87.9289 50 83.2555C56.3011 87.9289 62.5819 90.653 68.0095 90.653C70.5553 90.653 72.9165 90.083 75.0081 88.8789C81.545 85.1048 84.0332 75.9074 82.7149 64.4566C93.2846 59.873 100 53.122 100 45.5765C100 38.0293 93.2804 31.28 82.7067 26.6963C84.0245 15.2459 81.537 6.04821 75 2.27409C72.9125 1.06576 70.5513 0.5 68.0013 0.5C62.5738 0.5 56.3006 3.22405 50 7.89746C43.699 3.22405 37.4244 0.5 31.9988 0.5ZM31.9988 7.79166C35.2555 7.79166 39.5624 9.52336 44.2382 12.7314C41.489 15.326 38.7965 18.2763 36.206 21.5611C32.0045 22.1636 28.0431 23.0419 24.3734 24.1409C24.3536 23.8864 24.307 23.6194 24.292 23.3679C23.8461 15.9511 25.475 10.4225 28.6459 8.5892C29.5834 8.04752 30.6779 7.79166 31.9988 7.79166ZM68.0013 7.79166C69.318 7.79166 70.4166 8.04752 71.3541 8.5892C74.525 10.4184 76.1539 15.9511 75.708 23.3679C75.6929 23.6194 75.6464 23.8864 75.6266 24.1409C71.9546 23.0411 67.9902 22.1636 63.7857 21.5611C61.1954 18.2766 58.5109 15.3256 55.7618 12.7314C60.4374 9.5239 64.7461 7.79166 68.0013 7.79166ZM50 17.362C51.1295 18.39 52.2511 19.4766 53.3854 20.666C52.2614 20.6283 51.1433 20.5765 50 20.5765C48.8595 20.5765 47.7441 20.6284 46.6227 20.666C47.756 19.4779 48.8715 18.389 50 17.362ZM50 27.8681C53.4529 27.8681 56.7255 28.0611 59.8308 28.3971C61.7244 30.971 63.5907 33.6924 65.3401 36.7223C67.017 39.6266 68.4998 42.5994 69.808 45.5765C68.4996 48.5554 67.018 51.5328 65.3401 54.4388C63.5961 57.46 61.7345 60.1638 59.847 62.7314C56.6321 63.0831 53.3342 63.2848 50 63.2848C46.5471 63.2848 43.2745 63.0918 40.1692 62.7559C38.2756 60.1819 36.4092 57.4688 34.6599 54.4388C32.982 51.5328 31.5008 48.5554 30.192 45.5765C31.4999 42.5994 32.983 39.6266 34.6599 36.7223C36.4045 33.7011 38.265 30.9891 40.153 28.4215C43.3679 28.0698 46.6658 27.8681 50 27.8681ZM69.7754 30.1224C71.4285 30.5215 73.0178 30.9524 74.5118 31.4326C74.1733 32.962 73.7593 34.5206 73.291 36.0956C72.7549 35.0895 72.2349 34.0803 71.6552 33.0765C71.0589 32.044 70.3969 31.1163 69.7754 30.1224ZM30.2165 30.1305C29.5971 31.1214 28.9391 32.0473 28.3448 33.0765C27.7653 34.0804 27.245 35.0894 26.709 36.0956C26.2396 34.5174 25.819 32.9569 25.4801 31.4245C27.0015 30.9438 28.5868 30.5181 30.2165 30.1305ZM18.6197 34.1019C19.4977 37.8086 20.7155 41.6511 22.2819 45.5684C20.7189 49.4763 19.5061 53.3118 18.6279 57.0104C11.3718 53.5065 7.29166 49.1448 7.29166 45.5765C7.29166 41.914 11.2578 37.7401 17.9036 34.4193C18.1305 34.3058 18.388 34.2126 18.6197 34.1019ZM81.3721 34.1425C88.6283 37.6465 92.7084 42.0083 92.7084 45.5765C92.7084 49.239 88.7423 53.4129 82.0964 56.7338C81.8695 56.8471 81.612 56.9403 81.3803 57.0511C80.5018 53.3421 79.2939 49.496 77.7262 45.5765C79.2874 41.672 80.4946 37.8381 81.3721 34.1425ZM50 37.2431C45.3959 37.2431 41.6666 40.9723 41.6666 45.5765C41.6666 50.1806 45.3959 53.9098 50 53.9098C54.6041 53.9098 58.3334 50.1806 58.3334 45.5765C58.3334 40.9723 54.6041 37.2431 50 37.2431ZM26.709 55.0573C27.2454 56.0638 27.773 57.0724 28.3529 58.0765C28.9486 59.1083 29.6039 60.0374 30.2246 61.0306C28.5715 60.6315 26.9823 60.2006 25.4883 59.7204C25.827 58.19 26.2403 56.6333 26.709 55.0573ZM73.291 55.0654C73.7599 56.6421 74.1814 58.1975 74.5199 59.7285C72.9985 60.2092 71.4133 60.6349 69.7835 61.0224C70.4029 60.0316 71.0609 59.1056 71.6552 58.0765C72.2335 57.0746 72.756 56.0696 73.291 55.0654ZM24.3734 67.012C28.0454 68.1118 32.0097 68.9893 36.2142 69.5918C38.8054 72.8779 41.4879 75.8345 44.2382 78.4296C39.5626 81.6368 35.2553 83.3695 31.9988 83.3695C30.682 83.3695 29.5834 83.1054 28.6459 82.5638C25.475 80.7346 23.8461 75.2099 24.292 67.7933C24.3072 67.5391 24.3532 67.2693 24.3734 67.012ZM75.6266 67.012C75.6466 67.2693 75.6929 67.5391 75.708 67.7933C76.1539 75.2099 74.525 80.7305 71.3541 82.5638C70.4166 83.1054 69.3221 83.3695 68.0013 83.3695C64.7448 83.3695 60.4374 81.6374 55.7618 78.4296C58.5124 75.8343 61.2022 72.8784 63.794 69.5918C67.9955 68.9894 71.9569 68.1111 75.6266 67.012ZM46.6146 70.487C47.7386 70.5248 48.8567 70.5765 50 70.5765C51.1433 70.5765 52.2614 70.5248 53.3854 70.487C52.2511 71.6764 51.1295 72.763 50 73.791C48.8705 72.7629 47.7489 71.6764 46.6146 70.487Z"
            fill="#85899E" />
    </g>
    <defs>
        <clipPath id="clip0_75_408">
            <rect width="100" height="91" fill="white" />
        </clipPath>
    </defs>
</svg>