<svg width="100" height="60" viewBox="0 0 100 60" fill="none" xmlns="http://www.w3.org/2000/svg">
    <g clip-path="url(#clip0_75_410)">
        <path
            d="M50 0.00836182C36.6667 0.00836182 28.3333 6.67295 25 20.0021C30 13.3375 35.8333 10.8396 42.5 12.5042C46.3042 13.4542 49.0229 16.2146 52.0333 19.2688C56.9333 24.2417 62.6062 30 75 30C88.3333 30 96.6667 23.3354 100 10.0042C95 16.6688 89.1667 19.1688 82.5 17.5042C78.6979 16.5542 75.9792 13.7938 72.9688 10.7396C68.0667 5.76461 62.3917 0.00836182 50 0.00836182ZM25 30C11.6667 30 3.33333 36.6646 0 49.9959C5 43.3313 10.8333 40.8313 17.5 42.4979C21.3021 43.45 24.0208 46.2084 27.0312 49.2604C31.9333 54.2354 37.6083 59.9938 50 59.9938C63.3333 59.9938 71.6667 53.3292 75 39.9979C70 46.6625 64.1667 49.1625 57.5 47.4959C53.6958 46.5459 50.9771 43.7854 47.9667 40.7334C43.0667 35.7584 37.3937 30 25 30Z"
            fill="#85899E" />
    </g>
    <defs>
        <clipPath id="clip0_75_410">
            <rect width="100" height="60" fill="white" />
        </clipPath>
    </defs>
</svg>