<svg width="100" height="100" viewBox="0 0 100 100" fill="none" xmlns="http://www.w3.org/2000/svg">
    <path
        d="M50 20C36.6667 20 28.3333 26.6646 25 39.9937C30 33.3291 35.8333 30.8312 42.5 32.4958C46.3042 33.4458 49.0229 36.2062 52.0333 39.2604C56.9333 44.2333 62.6062 49.9916 75 49.9916C88.3333 49.9916 96.6667 43.327 100 29.9958C95 36.6604 89.1667 39.1604 82.5 37.4958C78.6979 36.5458 75.9792 33.7854 72.9688 30.7312C68.0667 25.7562 62.3917 20 50 20ZM25 49.9916C11.6667 49.9916 3.33333 56.6562 0 69.9875C5 63.3229 10.8333 60.8229 17.5 62.4895C21.3021 63.4416 24.0208 66.2 27.0312 69.252C31.9333 74.227 37.6083 79.9854 50 79.9854C63.3333 79.9854 71.6667 73.3208 75 59.9895C70 66.6541 64.1667 69.1541 57.5 67.4875C53.6958 66.5375 50.9771 63.777 47.9667 60.725C43.0667 55.75 37.3937 49.9916 25 49.9916Z"
        fill="#85899E" />
</svg>