<svg width="100" height="100" viewBox="0 0 100 100" fill="none" xmlns="http://www.w3.org/2000/svg">
    <path
        d="M56.1733 1C61.6188 13.6006 36.6497 21.3821 34.3292 31.8787C32.2021 41.5245 49.1652 52.7327 49.1807 52.7327C46.6049 48.7414 44.7098 45.4539 42.1262 39.2426C37.7558 28.7382 68.7429 19.2318 56.1733 1ZM72.7574 18.4505C72.7574 18.4505 50.8515 19.8583 49.7376 33.8589C49.2426 40.0935 55.5003 43.3732 55.6782 47.9059C55.8252 51.6111 51.9653 54.7129 51.9653 54.7129C51.9653 54.7129 58.9889 53.3747 61.1856 47.7203C63.6222 41.4471 56.4362 37.2082 57.1634 32.1881C57.8595 27.3846 72.7574 18.4505 72.7574 18.4505ZM38.3515 50.8144C38.3515 50.8144 18.302 50.5281 18.302 56.198C18.302 62.1232 44.5473 62.5641 63.2896 58.9208C63.2896 58.9208 68.2711 55.4942 69.6015 54.2178C57.318 56.724 29.3168 57.0025 29.3168 54.8366C29.3168 52.841 38.3515 50.8144 38.3515 50.8144ZM76.9035 50.8144C74.9387 50.9691 72.8193 51.7271 70.901 53.104C75.4183 52.1293 79.255 54.9295 79.255 58.1163C79.255 65.2946 68.8589 72.0396 68.8589 72.0396C68.8589 72.0396 84.948 70.2141 84.948 58.4257C84.948 53.0731 81.2274 50.4741 76.9035 50.8144ZM33.5248 61.8292C30.4461 61.8292 25.8515 64.2426 25.8515 66.5322C25.8515 71.1346 48.9951 74.6773 66.1361 67.9555L60.1955 64.3045C48.5773 68.0251 27.182 66.8107 33.5248 61.8292ZM36.3713 72.1634C32.1556 72.1634 29.3787 74.7082 29.3787 76.6188C29.3787 82.5285 54.5566 83.1241 64.5272 77.1139L58.2153 73.0916C50.7664 76.2398 32.0705 76.7194 36.3713 72.1634ZM22.3243 77.4852C15.4554 77.346 11 80.4323 11 82.9926C11 96.6064 81.297 95.9799 81.297 82.0644C81.297 79.7516 78.6284 78.6299 77.646 78.104C83.3933 91.4084 20.0965 90.3487 20.0965 82.4975C20.0965 80.7107 24.7531 79.0012 29.0693 79.8366L25.4183 77.7327C24.3432 77.5702 23.3066 77.5083 22.3243 77.4852ZM88.7228 86.6436C78.0328 96.7766 50.9444 100.451 23.6856 94.1931C50.9365 105.348 88.5913 99.0894 88.7228 86.6436Z"
        fill="#85899E" />
</svg>