<svg width="100" height="100" viewBox="0 0 100 100" fill="none" xmlns="http://www.w3.org/2000/svg">
    <mask id="mask0_105_384" style="mask-type:luminance" maskUnits="userSpaceOnUse" x="5" y="0"
        width="90" height="100">
        <path d="M94.4737 0H5V100H94.4737V0Z" fill="white" />
    </mask>
    <g mask="url(#mask0_105_384)">
        <path
            d="M93.0061 75.7953L56.2161 3.6687C55.7589 2.78122 55.0503 2.02436 54.1653 1.47818C53.2804 0.931998 52.252 0.616827 51.1889 0.566018C50.1238 0.500125 49.0595 0.705092 48.1119 1.15862C47.1642 1.61216 46.3692 2.29691 45.8136 3.13838L5.9112 62.8021C5.30447 63.703 4.98849 64.7449 5.00032 65.8056C5.01215 66.8663 5.35129 67.902 5.97799 68.7912L25.4865 96.6812C26.2245 97.7281 27.3094 98.5268 28.5793 98.9579C29.8493 99.3891 31.2362 99.4297 32.5331 99.0737L89.1472 83.6139C89.9997 83.3838 90.7887 82.9875 91.4609 82.4517C92.1332 81.9158 92.673 81.2531 93.0438 80.508C93.4094 79.767 93.5957 78.9612 93.5897 78.1468C93.5836 77.3324 93.3854 76.5291 93.0089 75.7926L93.0061 75.7953ZM84.7693 78.8886L36.729 92.0029C35.2635 92.4054 33.8568 91.2327 34.1616 89.8672L51.3253 13.9984C51.6461 12.579 53.7694 12.3541 54.4408 13.6678L86.2134 75.9556C86.3539 76.2332 86.4274 76.5355 86.4291 76.8418C86.4307 77.1481 86.3604 77.4512 86.2228 77.7299C86.0853 78.0088 85.8839 78.2566 85.6326 78.4566C85.3812 78.6566 85.0859 78.8039 84.7669 78.8883L84.7693 78.8886Z"
            fill="#85899E" />
    </g>
</svg>