<svg width="100" height="100" viewBox="0 0 100 100" fill="none" xmlns="http://www.w3.org/2000/svg">
    <path
        d="M31.9988 5.5C29.4529 5.5 27.0916 6.06992 25 7.27409C18.463 11.0482 15.9749 20.2454 17.2933 31.6963C6.71959 36.28 0 43.0293 0 50.5765C0 58.1238 6.71959 64.873 17.2933 69.4566C15.9755 80.9072 18.463 90.1048 25 93.8789C27.0875 95.083 29.4488 95.653 31.9988 95.653C37.4263 95.653 43.6994 92.9289 50 88.2555C56.3011 92.9289 62.5819 95.653 68.0095 95.653C70.5553 95.653 72.9165 95.083 75.0081 93.8789C81.545 90.1048 84.0332 80.9074 82.7149 69.4566C93.2846 64.873 100 58.122 100 50.5765C100 43.0293 93.2804 36.28 82.7067 31.6963C84.0245 20.2459 81.537 11.0482 75 7.27409C72.9125 6.06576 70.5513 5.5 68.0013 5.5C62.5737 5.5 56.3006 8.22405 50 12.8975C43.699 8.22405 37.4244 5.5 31.9988 5.5ZM31.9988 12.7917C35.2555 12.7917 39.5624 14.5234 44.2382 17.7314C41.489 20.326 38.7965 23.2763 36.206 26.5611C32.0045 27.1636 28.0431 28.0419 24.3734 29.1409C24.3536 28.8864 24.307 28.6194 24.292 28.3679C23.8461 20.9511 25.475 15.4225 28.6459 13.5892C29.5834 13.0475 30.6779 12.7917 31.9988 12.7917ZM68.0013 12.7917C69.318 12.7917 70.4166 13.0475 71.3541 13.5892C74.525 15.4184 76.1539 20.9511 75.708 28.3679C75.6929 28.6194 75.6464 28.8864 75.6266 29.1409C71.9546 28.0411 67.9902 27.1636 63.7857 26.5611C61.1954 23.2766 58.5109 20.3256 55.7618 17.7314C60.4374 14.5239 64.7461 12.7917 68.0013 12.7917ZM50 22.362C51.1295 23.39 52.2511 24.4766 53.3854 25.666C52.2614 25.6283 51.1432 25.5765 50 25.5765C48.8595 25.5765 47.7441 25.6284 46.6227 25.666C47.756 24.4779 48.8715 23.389 50 22.362ZM50 32.8681C53.4529 32.8681 56.7255 33.0611 59.8307 33.3971C61.7244 35.971 63.5907 38.6924 65.3401 41.7223C67.017 44.6266 68.4997 47.5994 69.808 50.5765C68.4996 53.5554 67.018 56.5328 65.3401 59.4388C63.5961 62.46 61.7345 65.1638 59.847 67.7314C56.6321 68.0831 53.3343 68.2848 50 68.2848C46.5471 68.2848 43.2745 68.0918 40.1693 67.7559C38.2756 65.1819 36.4092 62.4688 34.6599 59.4388C32.982 56.5328 31.5008 53.5554 30.192 50.5765C31.4999 47.5994 32.983 44.6266 34.6599 41.7223C36.4045 38.7011 38.265 35.9891 40.153 33.4215C43.3679 33.0698 46.6657 32.8681 50 32.8681ZM69.7754 35.1224C71.4285 35.5215 73.0178 35.9524 74.5117 36.4326C74.1733 37.962 73.7593 39.5206 73.291 41.0956C72.7549 40.0895 72.2349 39.0803 71.6553 38.0765C71.0589 37.044 70.3969 36.1163 69.7754 35.1224ZM30.2165 35.1305C29.5971 36.1214 28.9391 37.0473 28.3447 38.0765C27.7653 39.0804 27.245 40.0894 26.709 41.0956C26.2396 39.5174 25.819 37.9569 25.4801 36.4245C27.0015 35.9438 28.5868 35.5181 30.2165 35.1305ZM18.6197 39.1019C19.4977 42.8086 20.7155 46.6511 22.2819 50.5684C20.7189 54.4763 19.5061 58.3118 18.6279 62.0104C11.3718 58.5065 7.29166 54.1448 7.29166 50.5765C7.29166 46.914 11.2578 42.7401 17.9036 39.4193C18.1305 39.3058 18.388 39.2126 18.6197 39.1019ZM81.3721 39.1425C88.6283 42.6465 92.7084 47.0083 92.7084 50.5765C92.7084 54.239 88.7422 58.4129 82.0964 61.7338C81.8695 61.8471 81.612 61.9403 81.3802 62.0511C80.5018 58.3421 79.2939 54.496 77.7262 50.5765C79.2874 46.672 80.4946 42.8382 81.3721 39.1425ZM50 42.2431C45.3959 42.2431 41.6666 45.9723 41.6666 50.5765C41.6666 55.1806 45.3959 58.9098 50 58.9098C54.6041 58.9098 58.3334 55.1806 58.3334 50.5765C58.3334 45.9723 54.6041 42.2431 50 42.2431ZM26.709 60.0573C27.2454 61.0638 27.773 62.0724 28.3529 63.0765C28.9486 64.1083 29.6039 65.0374 30.2246 66.0306C28.5715 65.6315 26.9823 65.2006 25.4883 64.7204C25.827 63.19 26.2403 61.6333 26.709 60.0573ZM73.291 60.0654C73.7599 61.6421 74.1814 63.1975 74.5199 64.7285C72.9985 65.2091 71.4133 65.6349 69.7835 66.0224C70.4029 65.0317 71.0609 64.1056 71.6553 63.0765C72.2335 62.0746 72.756 61.0696 73.291 60.0654ZM24.3734 72.012C28.0454 73.1118 32.0098 73.9893 36.2142 74.5918C38.8054 77.8779 41.4879 80.8345 44.2382 83.4296C39.5626 86.6368 35.2553 88.3695 31.9988 88.3695C30.682 88.3695 29.5834 88.1054 28.6459 87.5638C25.475 85.7346 23.8461 80.2099 24.292 72.7933C24.3072 72.5391 24.3532 72.2693 24.3734 72.012ZM75.6266 72.012C75.6466 72.2693 75.6929 72.5391 75.708 72.7933C76.1539 80.2099 74.525 85.7305 71.3541 87.5638C70.4166 88.1054 69.3221 88.3695 68.0013 88.3695C64.7448 88.3695 60.4374 86.6374 55.7618 83.4296C58.5124 80.8343 61.2022 77.8784 63.794 74.5918C67.9955 73.9894 71.9569 73.1111 75.6266 72.012ZM46.6146 75.487C47.7386 75.5248 48.8568 75.5765 50 75.5765C51.1432 75.5765 52.2614 75.5248 53.3854 75.487C52.2511 76.6764 51.1295 77.763 50 78.791C48.8705 77.7629 47.7489 76.6764 46.6146 75.487Z"
        fill="#85899E" />
</svg>