<svg width="100" height="100" viewBox="0 0 100 100" fill="none" xmlns="http://www.w3.org/2000/svg">
    <g clip-path="url(#clip0_75_412)">
        <mask id="mask0_75_412" style="mask-type:luminance" maskUnits="userSpaceOnUse" x="0" y="0"
            width="100" height="100">
            <path d="M100 0H0V100H100V0Z" fill="white" />
        </mask>
        <g mask="url(#mask0_75_412)">
            <path
                d="M70.7032 0H29.2968C13.1167 0 0 13.1167 0 29.2968V70.7032C0 86.8833 13.1167 100 29.2968 100H70.7032C86.8833 100 100 86.8833 100 70.7032V29.2968C100 13.1167 86.8833 0 70.7032 0Z"
                fill="#85899E" />
            <path fill-rule="evenodd" clip-rule="evenodd"
                d="M49.8916 14.6484L63.7738 22.6577V27.0617L80.5767 36.7653V53.3641L85.0839 55.966V71.9937L71.2107 80.0029L65.0516 76.441L50.0764 85.087L35.1907 76.491L29.1179 80.0029L15.2446 71.9801V55.966L19.5762 53.4654V36.7653L36.0183 27.273L36.0276 27.2727V22.6577L49.8916 14.6484ZM63.7738 31.2263V38.6763L49.9005 46.6857L36.0276 38.6763V31.4328L36.0183 31.4331L23.1818 38.8476V51.3836L29.1179 47.9566L42.991 55.966V71.9801L38.7939 74.4071L50.0764 80.9224L61.4486 74.3577L57.3375 71.9801V55.966L71.2107 47.9566L76.9709 51.2822V38.8476L63.7738 31.2263ZM60.9433 69.9157V60.1396L69.4078 65.0255V74.8017L60.9433 69.9157ZM81.478 60.1261L73.0137 65.0121V74.8017L81.478 69.9023V60.1261ZM18.8504 69.9023V60.1261L27.315 65.0121V74.7881L18.8504 69.9023ZM39.3853 60.1261L30.9206 65.0121V74.7881L39.3853 69.9023V60.1261ZM62.7463 57.0162L71.2107 52.1304L79.6752 57.0162L71.2107 61.9066L62.7463 57.0162ZM29.1179 52.1168L20.6533 57.0162L29.1179 61.8929L37.5824 57.0162L29.1179 52.1168ZM39.6332 36.5941V26.818L48.0886 31.7082V41.4798L39.6332 36.5941ZM60.159 26.818L51.7035 31.7082V41.4754L60.159 36.5941V26.818ZM41.4362 23.6988L49.8916 18.813L58.3563 23.6988L49.8916 28.5848L41.4362 23.6988Z"
                fill="#FBF7EC" />
        </g>
    </g>
    <defs>
        <clipPath id="clip0_75_412">
            <rect width="100" height="100" fill="white" />
        </clipPath>
    </defs>
</svg>