<svg width="100" height="100" viewBox="0 0 100 100" fill="none" xmlns="http://www.w3.org/2000/svg">
    <g clip-path="url(#clip0_75_419)">
        <path
            d="M97.6191 0H2.38096C1.06429 0 0 1.06667 0 2.38096V97.6191C0 98.9333 1.06429 100 2.38096 100H97.6191C98.9357 100 100 98.9333 100 97.6191V2.38096C100 1.06667 98.9357 0 97.6191 0ZM59.5239 53.4404H47.6191V90.4761H38.0952V53.4404H26.1904V45.2381H59.5239V53.4404ZM62.1928 88.3619V78.4619C62.1928 78.4619 67.6 82.5381 74.0881 82.5381C80.5761 82.5381 80.3261 78.2952 80.3261 77.7143C80.3261 71.5572 61.9428 71.5572 61.9428 57.9167C61.9428 39.3667 88.7285 46.6857 88.7285 46.6857L88.3952 55.5048C88.3952 55.5048 83.9024 52.5096 78.8285 52.5096C73.7548 52.5096 71.9239 54.9215 71.9239 57.5C71.9239 64.1548 90.4739 63.4904 90.4739 76.8833C90.4761 97.5119 62.1928 88.3619 62.1928 88.3619Z"
            fill="#85899E" />
    </g>
    <defs>
        <clipPath id="clip0_75_419">
            <rect width="100" height="100" fill="white" />
        </clipPath>
    </defs>
</svg>