<svg width="92" height="59" viewBox="0 0 92 59" fill="none" xmlns="http://www.w3.org/2000/svg">
<path d="M87.5 29.5C87.5 33.933 83.4684 38.4386 75.7861 41.9225C68.2404 45.3444 57.7108 47.5 46 47.5C34.2892 47.5 23.7596 45.3444 16.2139 41.9225C8.5316 38.4386 4.5 33.933 4.5 29.5C4.5 25.067 8.5316 20.5614 16.2139 17.0775C23.7596 13.6556 34.2892 11.5 46 11.5C57.7108 11.5 68.2404 13.6556 75.7861 17.0775C83.4684 20.5614 87.5 25.067 87.5 29.5Z" stroke="#FBF7EC" stroke-width="3"/>
<path d="M83.5 29.5C83.5 34.0105 79.8045 38.4979 72.9063 41.9469C66.0979 45.3512 56.5872 47.5 46 47.5C35.4128 47.5 25.9021 45.3512 19.0937 41.9469C12.1955 38.4979 8.5 34.0105 8.5 29.5C8.5 24.9895 12.1955 20.5021 19.0937 17.0531C25.9021 13.6488 35.4128 11.5 46 11.5C56.5872 11.5 66.0979 13.6488 72.9063 17.0531C79.8045 20.5021 83.5 24.9895 83.5 29.5Z" stroke="#FBF7EC" stroke-width="3"/>
<path d="M85.5 29.5C85.5 33.9709 81.6367 38.467 74.3471 41.934C67.17 45.3475 57.1495 47.5 46 47.5C34.8505 47.5 24.83 45.3475 17.6529 41.934C10.3633 38.467 6.5 33.9709 6.5 29.5C6.5 25.0291 10.3633 20.533 17.6529 17.066C24.83 13.6525 34.8505 11.5 46 11.5C57.1495 11.5 67.17 13.6525 74.3471 17.066C81.6367 20.533 85.5 25.0291 85.5 29.5Z" stroke="#FBF7EC" stroke-width="3"/>
<path d="M85.7976 17.6937C86.4381 19.9565 85.9996 22.4516 84.5794 25.0568C83.1577 27.6647 80.7672 30.3513 77.5699 32.9556C71.1767 38.163 61.635 42.9783 50.4583 46.1422C39.2815 49.306 28.6316 50.2064 20.4575 49.1225C16.3696 48.5805 12.9256 47.5455 10.3479 46.0697C7.77292 44.5955 6.09172 42.7004 5.45118 40.4376C4.81063 38.1747 5.2491 35.6796 6.66932 33.0745C8.09104 30.4666 10.4815 27.7799 13.6788 25.1756C20.072 19.9682 29.6137 15.1529 40.7905 11.9891C51.9673 8.82526 62.6172 7.92489 70.7912 9.00872C74.8791 9.55076 78.3231 10.5858 80.9008 12.0616C83.4758 13.5358 85.157 15.4309 85.7976 17.6937Z" stroke="#FBF7EC"/>
<path d="M30.996 43.936C30.66 43.936 30.384 43.888 30.168 43.792L30.024 43.648C29.592 43.552 29.244 43.324 28.98 42.964C28.716 42.628 28.584 42.244 28.584 41.812C28.584 41.644 28.668 41.332 28.836 40.876C29.004 40.42 29.136 40.108 29.232 39.94C29.232 40.06 29.208 40.18 29.16 40.3C29.136 40.444 29.124 40.576 29.124 40.696C29.124 40.792 29.184 41.02 29.304 41.38C29.448 41.764 29.532 42.052 29.556 42.244C29.796 42.556 30.072 42.832 30.384 43.072C30.72 43.312 31.092 43.432 31.5 43.432C32.172 43.432 32.928 43.06 33.768 42.316C34.608 41.572 35.484 40.6 36.396 39.4C37.308 38.2 38.184 36.892 39.024 35.476C39.888 34.084 40.656 32.716 41.328 31.372C42 30.004 42.54 28.792 42.948 27.736C43.356 26.68 43.56 25.912 43.56 25.432C43.56 25.312 43.608 25.204 43.704 25.108C43.824 24.988 43.932 24.88 44.028 24.784H43.956C43.956 24.712 43.956 24.64 43.956 24.568C43.98 24.496 43.992 24.424 43.992 24.352C43.992 24.208 43.944 24.088 43.848 23.992C43.992 23.656 44.1 23.32 44.172 22.984C44.268 22.648 44.364 22.312 44.46 21.976L43.992 22.12L43.776 22.3L43.704 22.84C42.792 23.896 41.928 25.012 41.112 26.188C40.296 27.34 39.396 28.444 38.412 29.5H38.16L37.908 30.22L37.332 30.616L37.62 30.256L37.188 30.76L37.332 30.832C37.116 31.024 36.84 31.336 36.504 31.768C36.168 32.176 35.808 32.608 35.424 33.064C35.04 33.496 34.668 33.88 34.308 34.216C33.948 34.576 33.66 34.78 33.444 34.828C33.276 34.78 33.108 34.756 32.94 34.756C32.772 34.756 32.592 34.732 32.4 34.684L32.328 34.504L31.572 34.288C31.5 33.976 31.392 33.664 31.248 33.352C31.128 33.04 31.068 32.716 31.068 32.38C31.068 31.756 31.188 31.072 31.428 30.328C31.692 29.584 32.028 28.828 32.436 28.06C32.844 27.292 33.264 26.572 33.696 25.9C34.152 25.204 34.572 24.628 34.956 24.172C34.668 24.172 34.464 24.124 34.344 24.028L34.38 23.92L34.776 23.776L34.812 23.596L34.704 23.2C34.752 22.864 34.944 22.66 35.28 22.588L35.1 22.516L35.064 22.444L35.352 22.192L35.388 22.3L35.64 22.048L35.532 21.832C35.724 21.472 35.832 21.076 35.856 20.644C36.24 20.188 36.528 19.816 36.72 19.528C36.912 19.24 37.056 18.928 37.152 18.592C37.272 18.232 37.38 17.764 37.476 17.188L37.296 17.044C36.48 17.068 35.82 17.188 35.316 17.404C34.812 17.596 34.392 17.86 34.056 18.196C33.72 18.532 33.396 18.904 33.084 19.312C32.772 19.696 32.388 20.092 31.932 20.5C31.74 20.668 31.5 20.824 31.212 20.968C30.924 21.088 30.78 21.316 30.78 21.652C30.18 21.892 29.736 22.324 29.448 22.948C29.184 23.572 29.052 24.184 29.052 24.784C29.028 24.832 29.004 24.892 28.98 24.964C28.956 25.036 28.932 25.096 28.908 25.144C28.74 24.928 28.644 24.676 28.62 24.388C28.596 24.076 28.584 23.788 28.584 23.524C28.584 22.804 28.872 22.036 29.448 21.22C30.024 20.404 30.744 19.636 31.608 18.916C32.472 18.172 33.36 17.572 34.272 17.116C35.184 16.66 35.988 16.432 36.684 16.432C36.876 16.432 37.08 16.456 37.296 16.504C37.536 16.552 37.764 16.6 37.98 16.648C38.34 16.888 38.7 17.2 39.06 17.584C39.42 17.944 39.6 18.364 39.6 18.844C39.6 18.988 39.492 19.3 39.276 19.78C39.06 20.26 38.796 20.776 38.484 21.328C38.172 21.88 37.872 22.384 37.584 22.84C37.32 23.272 37.128 23.536 37.008 23.632L36.9 23.416L36.54 23.704V23.956L36.756 23.92L36.828 24.028C36.756 24.244 36.624 24.58 36.432 25.036C36.264 25.468 36.084 25.744 35.892 25.864C35.676 26.32 35.388 26.872 35.028 27.52C34.668 28.168 34.308 28.84 33.948 29.536C33.612 30.208 33.324 30.868 33.084 31.516C32.844 32.164 32.724 32.74 32.724 33.244C32.724 33.316 32.736 33.412 32.76 33.532C32.784 33.628 32.808 33.724 32.832 33.82L33.84 33.424L34.092 33.172H34.272L34.704 32.524L35.352 32.272C35.424 32.08 35.52 31.852 35.64 31.588C35.76 31.3 35.952 31.132 36.216 31.084L36.612 30.436C36.948 30.1 37.272 29.764 37.584 29.428C37.896 29.092 38.22 28.768 38.556 28.456L38.592 28.168H38.88L38.988 28.024L38.844 27.808L38.808 27.736C39.12 27.4 39.42 27.016 39.708 26.584C39.996 26.128 40.332 25.804 40.716 25.612L41.004 25.036L40.968 25.144L41.292 25.288L41.184 24.604C42.336 23.068 43.488 21.604 44.64 20.212L44.604 19.672C44.58 19.096 44.676 18.424 44.892 17.656C45.108 16.888 45.456 16.228 45.936 15.676C46.416 15.1 47.004 14.812 47.7 14.812C47.964 14.812 48.144 14.884 48.24 15.028C48.336 15.172 48.384 15.34 48.384 15.532C48.384 15.652 48.372 15.796 48.348 15.964C48.324 16.108 48.3 16.24 48.276 16.36C48.732 15.856 49.224 15.34 49.752 14.812C50.304 14.284 50.892 13.84 51.516 13.48C52.14 13.12 52.812 12.94 53.532 12.94C53.58 12.94 53.604 12.964 53.604 13.012C53.604 13.132 53.568 13.228 53.496 13.3C53.04 13.42 52.464 13.648 51.768 13.984C51.096 14.296 50.472 14.752 49.896 15.352C49.8 15.472 49.632 15.664 49.392 15.928C49.152 16.192 48.9 16.456 48.636 16.72C48.396 16.96 48.192 17.152 48.024 17.296C47.856 17.968 47.652 18.832 47.412 19.888C47.196 20.92 46.944 22.012 46.656 23.164C46.392 24.292 46.092 25.336 45.756 26.296C45.42 27.256 45.048 27.988 44.64 28.492C44.568 28.78 44.46 29.14 44.316 29.572C44.196 29.98 44.028 30.28 43.812 30.472C43.524 31 43.164 31.66 42.732 32.452C42.3 33.22 41.832 34.012 41.328 34.828C40.824 35.668 40.308 36.424 39.78 37.096C39.276 37.768 38.784 38.272 38.304 38.608C38.136 38.824 37.968 39.052 37.8 39.292C37.632 39.532 37.452 39.748 37.26 39.94L37.224 39.904C36.72 40.576 36.156 41.212 35.532 41.812C34.932 42.436 34.248 42.94 33.48 43.324C32.736 43.732 31.908 43.936 30.996 43.936ZM40.248 27.376L40.464 27.052L40.608 27.016L40.536 27.232L40.248 27.376ZM40.439 41.776C39.455 41.776 38.687 41.524 38.135 41.02C37.559 40.516 37.151 39.868 36.911 39.076C36.671 38.284 36.551 37.468 36.551 36.628C36.551 36.484 36.599 36.328 36.695 36.16C36.767 35.992 36.887 35.908 37.055 35.908L37.163 35.944C37.091 36.04 37.055 36.136 37.055 36.232C37.031 36.328 37.019 36.436 37.019 36.556C37.019 37.18 37.187 37.756 37.523 38.284C37.859 38.812 38.303 39.232 38.855 39.544C39.407 39.856 39.995 40.012 40.619 40.012C42.107 40.012 43.439 39.688 44.615 39.04C45.815 38.416 46.931 37.588 47.963 36.556C48.299 36.22 48.707 35.668 49.187 34.9C49.691 34.156 50.219 33.292 50.771 32.308C51.323 31.324 51.863 30.292 52.391 29.212C52.943 28.108 53.435 27.04 53.867 26.008C54.323 24.976 54.683 24.04 54.947 23.2C55.235 22.36 55.379 21.712 55.379 21.256L54.983 21.832V21.724C55.127 21.364 55.271 21.004 55.415 20.644C55.559 20.284 55.679 19.924 55.775 19.564C54.623 19.612 53.471 19.78 52.319 20.068C51.191 20.332 50.135 20.752 49.151 21.328L49.331 21.544L48.323 22.372C48.011 22.444 47.783 22.624 47.639 22.912C47.519 23.176 47.435 23.452 47.387 23.74L47.243 23.812V24.136C47.243 24.424 47.327 24.616 47.495 24.712C47.663 24.784 47.867 24.82 48.107 24.82C48.203 24.82 48.299 24.82 48.395 24.82C48.491 24.82 48.587 24.808 48.683 24.784V24.856L48.359 25.252L48.251 25.288C47.627 25.288 47.123 25.096 46.739 24.712C46.355 24.328 46.151 23.824 46.127 23.2C46.319 22.936 46.427 22.756 46.451 22.66C46.499 22.564 46.535 22.468 46.559 22.372C46.583 22.276 46.667 22.132 46.811 21.94C46.955 21.748 47.231 21.448 47.639 21.04C47.807 20.968 47.951 20.86 48.071 20.716C48.191 20.572 48.335 20.488 48.503 20.464V20.896C48.623 20.824 48.755 20.74 48.899 20.644C49.043 20.548 49.115 20.416 49.115 20.248L49.907 19.924L50.087 20.032L50.123 19.996L49.979 19.744C50.939 19.48 51.899 19.264 52.859 19.096C53.843 18.904 54.815 18.76 55.775 18.664L55.847 18.556L55.919 17.8L56.135 17.548L56.099 17.296L56.459 16.864V16.792L55.919 16.396C56.183 16.3 56.471 16.216 56.783 16.144C57.095 16.048 57.371 15.916 57.611 15.748C57.899 15.82 58.211 15.856 58.547 15.856C58.883 15.832 59.171 15.916 59.411 16.108C59.387 16.444 59.339 16.78 59.267 17.116C59.219 17.428 59.147 17.752 59.051 18.088L58.403 18.376C58.619 18.4 58.955 18.448 59.411 18.52C59.891 18.568 60.371 18.652 60.851 18.772C61.355 18.892 61.787 19.048 62.147 19.24C62.507 19.408 62.687 19.636 62.687 19.924C62.687 19.996 62.675 20.068 62.651 20.14C62.627 20.188 62.615 20.236 62.615 20.284C62.207 19.852 61.715 19.564 61.139 19.42C60.563 19.252 59.987 19.192 59.411 19.24L58.655 19.276C58.439 20.5 58.043 21.796 57.467 23.164C56.891 24.508 56.231 25.828 55.487 27.124C54.767 28.42 54.047 29.596 53.327 30.652C53.159 30.892 52.931 31.156 52.643 31.444C52.379 31.732 52.211 32.008 52.139 32.272C52.019 32.32 51.875 32.536 51.707 32.92C51.539 33.304 51.371 33.688 51.203 34.072C51.059 34.48 50.939 34.768 50.843 34.936C50.651 35.032 50.471 35.152 50.303 35.296C50.135 35.464 49.991 35.632 49.871 35.8C49.871 35.968 49.679 36.268 49.295 36.7C48.911 37.156 48.443 37.636 47.891 38.14C47.339 38.644 46.823 39.088 46.343 39.472C45.863 39.88 45.527 40.144 45.335 40.264C45.071 40.648 44.663 40.924 44.111 41.092C43.535 41.284 43.019 41.404 42.563 41.452L42.383 41.344L42.491 41.2L42.347 41.128L42.059 41.272L41.735 41.2L41.555 41.308L41.843 41.632C41.603 41.68 41.375 41.716 41.159 41.74C40.919 41.764 40.679 41.776 40.439 41.776ZM50.555 19.96C50.747 19.912 50.951 19.852 51.167 19.78C51.383 19.684 51.575 19.588 51.743 19.492V19.42C51.647 19.468 51.539 19.516 51.419 19.564C51.323 19.588 51.227 19.612 51.131 19.636L51.095 19.6L50.447 19.816L50.555 19.96ZM47.027 24.136L46.991 23.632H46.883C46.883 23.656 46.871 23.68 46.847 23.704C46.847 23.728 46.847 23.764 46.847 23.812C46.847 23.956 46.907 24.064 47.027 24.136Z" fill="#FBF7EC"/>
</svg>
