<svg width="100" height="100" viewBox="0 0 100 100" fill="none" xmlns="http://www.w3.org/2000/svg">
    <g clip-path="url(#clip0_75_376)">
        <path
            d="M97.376 43.6736L56.3264 2.62398C54.5857 0.874661 52.2928 0 50 0C47.7072 0 45.4143 0.874661 43.6736 2.62398L35.5553 10.7422L45.6012 20.788C48.9385 18.8264 53.2863 19.251 56.148 22.1128C59.0099 24.9746 59.426 29.3224 57.4643 32.6512L67.3403 42.5272C70.6776 40.5655 75.0254 40.9901 77.8872 43.852C81.2839 47.2487 81.2839 52.7513 77.8872 56.148C74.4904 59.5448 68.9878 59.5448 65.5911 56.148C62.7292 53.2863 62.3047 48.9385 64.2663 45.6012L54.3903 35.7252C53.6854 36.1413 52.9466 36.447 52.1739 36.6423V63.3491C55.9188 64.3173 58.6957 67.6885 58.6957 71.7391C58.6957 76.5455 54.8064 80.4348 50 80.4348C45.1936 80.4348 41.3043 76.5455 41.3043 71.7391C41.3043 67.6885 44.0812 64.3173 47.8261 63.3491V36.6423C46.374 36.2687 44.9898 35.5468 43.852 34.4089C40.9901 31.5472 40.574 27.1993 42.5357 23.8705L32.4813 13.8162L2.62398 43.6736C-0.87466 47.1637 -0.87466 52.8363 2.62398 56.3264L43.6736 97.376C45.4143 99.1253 47.7072 100 50 100C52.2928 100 54.5857 99.1253 56.3264 97.376L97.376 56.3264C100.875 52.8363 100.875 47.1637 97.376 43.6736Z"
            fill="#85899E" />
    </g>
    <defs>
        <clipPath id="clip0_75_376">
            <rect width="100" height="100" fill="white" />
        </clipPath>
    </defs>
</svg>