<svg width="100" height="100" viewBox="0 0 100 100" fill="none" xmlns="http://www.w3.org/2000/svg">
    <g clip-path="url(#clip0_75_389)">
        <mask id="mask0_75_389" style="mask-type:luminance" maskUnits="userSpaceOnUse" x="0" y="0"
            width="100" height="100">
            <path d="M100 0H0V100H100V0Z" fill="white" />
        </mask>
        <g mask="url(#mask0_75_389)">
            <path
                d="M35.8417 39.8375L25.6188 45.4937C25.2355 45.7041 25 46.0958 25 46.5187V57.8375C25 58.2604 25.2355 58.65 25.6188 58.8625L35.8438 64.5229C36.225 64.7333 36.698 64.7333 37.0792 64.5229L47.3021 58.8625C47.6813 58.65 47.9167 58.2604 47.9167 57.8375V46.5187C47.9167 46.0958 47.6813 45.7062 47.298 45.4937L37.0771 39.8375C36.8855 39.7312 36.6709 39.6791 36.4584 39.6791C36.2438 39.6791 36.0313 39.7312 35.8396 39.8375M88.4396 50.0271L86.7355 50.9687C86.6709 51.0041 86.6334 51.0687 86.6334 51.1396V53.0271C86.6334 53.0979 86.673 53.1625 86.7355 53.1979L88.4396 54.1416C88.5042 54.1771 88.5813 54.1771 88.6459 54.1416L90.35 53.1979C90.4125 53.1625 90.4521 53.0979 90.4521 53.0271V51.1396C90.4521 51.0687 90.4125 51.0041 90.348 50.9687L88.6438 50.0271C88.6125 50.0083 88.5771 50 88.5417 50C88.5063 50 88.4709 50.0083 88.4396 50.0271Z"
                fill="#85899E" />
            <path
                d="M74.4814 27.8417L69.5043 25.0646C69.348 24.9771 69.1564 24.9792 69.0022 25.0708C68.848 25.1625 68.7522 25.3271 68.7522 25.5063L68.7501 42.2813L64.1606 39.7417C63.9689 39.6354 63.7543 39.5833 63.5418 39.5833C63.3293 39.5833 63.1147 39.6354 62.923 39.7417H62.9251L52.7022 45.3979C52.3189 45.6083 52.0835 46 52.0835 46.4208V57.7396C52.0835 58.1625 52.3189 58.5521 52.7022 58.7646L62.9272 64.425C63.3085 64.6354 63.7814 64.6354 64.1626 64.425L74.3856 58.7646C74.7647 58.5542 75.0001 58.1625 75.0001 57.7396V28.725C75.0001 28.3583 74.8001 28.0208 74.4814 27.8417ZM68.471 55.1208L63.8251 57.6938C63.6522 57.7896 63.4376 57.7896 63.2647 57.6938L58.6168 55.1208C58.4397 55.025 58.3335 54.8458 58.3335 54.6542V49.5083C58.3335 49.3167 58.4397 49.1396 58.6147 49.0417L63.2626 46.4708C63.3501 46.4229 63.4439 46.4 63.5418 46.4C63.6397 46.4 63.7356 46.425 63.8231 46.4708L68.4689 49.0417C68.6439 49.1396 68.7501 49.3188 68.7501 49.5104V54.6563C68.7501 54.8458 68.6439 55.025 68.471 55.1208Z"
                fill="#85899E" />
            <path
                d="M35.8417 39.8375L25 57.8375C25 58.2604 25.2355 58.65 25.6188 58.8625L35.8438 64.5229C36.225 64.7333 36.698 64.7333 37.0792 64.5229L47.9167 46.5187C47.9167 46.0958 47.6813 45.7062 47.298 45.4937L37.0771 39.8375C36.8855 39.7312 36.6709 39.6791 36.4584 39.6791C36.2438 39.6791 36.0313 39.7312 35.8396 39.8375"
                fill="#85899E" />
            <path
                d="M35.8417 39.8375L25.6188 45.4937C25.2355 45.7041 25 46.0958 25 46.5187L35.8417 64.5229C36.223 64.7333 36.6959 64.7333 37.0771 64.5229L47.3 58.8625C47.6813 58.65 47.9167 58.2604 47.9167 57.8375L37.0771 39.8375C36.8855 39.7312 36.6709 39.6791 36.4584 39.6791C36.2438 39.6791 36.0313 39.7312 35.8396 39.8375"
                fill="#85899E" />
            <path
                d="M99.3813 45.3979L89.1605 39.7416C88.9688 39.6354 88.7542 39.5833 88.5417 39.5833C88.3292 39.5833 88.1146 39.6354 87.923 39.7416L77.7021 45.3979C77.3209 45.6083 77.0834 46.0083 77.0834 46.4458V57.7187C77.0834 58.1541 77.3209 58.5562 77.7021 58.7666L87.9271 64.4271C88.3105 64.6396 88.7792 64.6396 89.1625 64.4271L93.8771 61.8166C94.3084 61.5771 94.3063 60.9583 93.8729 60.7208L83.6146 55.1229C83.4417 55.025 83.3334 54.8437 83.3334 54.6479V49.5104C83.3334 49.3187 83.4375 49.1416 83.6042 49.05L88.2605 46.475H88.2584C88.3459 46.4271 88.4417 46.4041 88.5396 46.4041C88.6375 46.4041 88.7334 46.4291 88.8209 46.475L93.4771 49.0521C93.6438 49.1437 93.748 49.3208 93.748 49.5125V53.7041C93.748 53.8833 93.8438 54.05 94 54.1396C94.1563 54.2271 94.348 54.2271 94.5042 54.1375L99.5 51.2354C99.8084 51.0562 100 50.725 100 50.3666V46.45C100 46.0104 99.7625 45.6083 99.3813 45.3979ZM22.298 45.3979L12.0771 39.7416C11.8855 39.6354 11.6709 39.5833 11.4584 39.5833C11.2459 39.5833 11.0313 39.6354 10.8396 39.7416L0.61875 45.3979C0.2375 45.6083 0 46.0083 0 46.4458V61.9979C0 62.1771 0.0958333 62.3437 0.252083 62.4333C0.408333 62.5208 0.6 62.5208 0.75625 62.4312L5.75208 59.5291C6.06042 59.35 6.25 59.0187 6.25 58.6604V49.5083C6.25 49.3166 6.35417 49.1396 6.52083 49.0479L11.1771 46.4729C11.2646 46.425 11.3605 46.4021 11.4584 46.4021C11.5563 46.4021 11.6521 46.4271 11.7396 46.4729L16.3959 49.05C16.5625 49.1416 16.6667 49.3187 16.6667 49.5104V58.6625C16.6667 59.0208 16.8563 59.3521 17.1667 59.5312L22.1625 62.4333C22.3188 62.5229 22.5105 62.5229 22.6667 62.4354C22.8209 62.3437 22.9167 62.1771 22.9167 61.9979V46.4479C22.9167 46.0104 22.6792 45.6083 22.298 45.3979Z"
                fill="#85899E" />
        </g>
    </g>
    <defs>
        <clipPath id="clip0_75_389">
            <rect width="100" height="100" fill="white" />
        </clipPath>
    </defs>
</svg>